<?xml version="1.0" encoding="utf-8"?>
<!-- Generator: Adobe Illustrator 23.0.0, SVG Export Plug-In . SVG Version: 6.00 Build 0)  -->
<svg version="1.1" xmlns="http://www.w3.org/2000/svg" xmlns:xlink="http://www.w3.org/1999/xlink" x="0px" y="0px"
	 viewBox="0 0 2000 2000" enable-background="new 0 0 2000 2000" xml:space="preserve">
<g id="bg" display="none">
	<rect display="inline" fill="#C6B38E" width="1999" height="1999"/>
</g>
<g id="Livello_1" display="none">
	<g display="inline">
		<rect x="-0.5" y="-0.5" fill="none" stroke="#000000" stroke-miterlimit="10" width="2000" height="2000"/>
		<line fill="none" stroke="#000000" stroke-miterlimit="10" x1="-0.5" y1="1960.28" x2="1999.5" y2="1960.28"/>
		<line fill="none" stroke="#000000" stroke-miterlimit="10" x1="-0.5" y1="1921.07" x2="1999.5" y2="1921.07"/>
		<line fill="none" stroke="#000000" stroke-miterlimit="10" x1="-0.5" y1="1881.85" x2="1999.5" y2="1881.85"/>
		<line fill="none" stroke="#000000" stroke-miterlimit="10" x1="-0.5" y1="1842.64" x2="1999.5" y2="1842.64"/>
		<line fill="none" stroke="#000000" stroke-miterlimit="10" x1="-0.5" y1="1803.42" x2="1999.5" y2="1803.42"/>
		<line fill="none" stroke="#000000" stroke-miterlimit="10" x1="-0.5" y1="1764.21" x2="1999.5" y2="1764.21"/>
		<line fill="none" stroke="#000000" stroke-miterlimit="10" x1="-0.5" y1="1724.99" x2="1999.5" y2="1724.99"/>
		<line fill="none" stroke="#000000" stroke-miterlimit="10" x1="-0.5" y1="1685.77" x2="1999.5" y2="1685.77"/>
		<line fill="none" stroke="#000000" stroke-miterlimit="10" x1="-0.5" y1="1646.56" x2="1999.5" y2="1646.56"/>
		<line fill="none" stroke="#000000" stroke-miterlimit="10" x1="-0.5" y1="1607.34" x2="1999.5" y2="1607.34"/>
		<line fill="none" stroke="#000000" stroke-miterlimit="10" x1="-0.5" y1="1568.13" x2="1999.5" y2="1568.13"/>
		<line fill="none" stroke="#000000" stroke-miterlimit="10" x1="-0.5" y1="1528.91" x2="1999.5" y2="1528.91"/>
		<line fill="none" stroke="#000000" stroke-miterlimit="10" x1="-0.5" y1="1489.7" x2="1999.5" y2="1489.7"/>
		<line fill="none" stroke="#000000" stroke-miterlimit="10" x1="-0.5" y1="1450.48" x2="1999.5" y2="1450.48"/>
		<line fill="none" stroke="#000000" stroke-miterlimit="10" x1="-0.5" y1="1411.26" x2="1999.5" y2="1411.26"/>
		<line fill="none" stroke="#000000" stroke-miterlimit="10" x1="-0.5" y1="1372.05" x2="1999.5" y2="1372.05"/>
		<line fill="none" stroke="#000000" stroke-miterlimit="10" x1="-0.5" y1="1332.83" x2="1999.5" y2="1332.83"/>
		<line fill="none" stroke="#000000" stroke-miterlimit="10" x1="-0.5" y1="1293.62" x2="1999.5" y2="1293.62"/>
		<line fill="none" stroke="#000000" stroke-miterlimit="10" x1="-0.5" y1="1254.4" x2="1999.5" y2="1254.4"/>
		<line fill="none" stroke="#000000" stroke-miterlimit="10" x1="-0.5" y1="1215.19" x2="1999.5" y2="1215.19"/>
		<line fill="none" stroke="#000000" stroke-miterlimit="10" x1="-0.5" y1="1175.97" x2="1999.5" y2="1175.97"/>
		<line fill="none" stroke="#000000" stroke-miterlimit="10" x1="-0.5" y1="1136.75" x2="1999.5" y2="1136.75"/>
		<line fill="none" stroke="#000000" stroke-miterlimit="10" x1="-0.5" y1="1097.54" x2="1999.5" y2="1097.54"/>
		<line fill="none" stroke="#000000" stroke-miterlimit="10" x1="-0.5" y1="1058.32" x2="1999.5" y2="1058.32"/>
		<line fill="none" stroke="#000000" stroke-miterlimit="10" x1="-0.5" y1="1019.11" x2="1999.5" y2="1019.11"/>
		<line fill="none" stroke="#000000" stroke-miterlimit="10" x1="-0.5" y1="979.89" x2="1999.5" y2="979.89"/>
		<line fill="none" stroke="#000000" stroke-miterlimit="10" x1="-0.5" y1="940.68" x2="1999.5" y2="940.68"/>
		<line fill="none" stroke="#000000" stroke-miterlimit="10" x1="-0.5" y1="901.46" x2="1999.5" y2="901.46"/>
		<line fill="none" stroke="#000000" stroke-miterlimit="10" x1="-0.5" y1="862.25" x2="1999.5" y2="862.25"/>
		<line fill="none" stroke="#000000" stroke-miterlimit="10" x1="-0.5" y1="823.03" x2="1999.5" y2="823.03"/>
		<line fill="none" stroke="#000000" stroke-miterlimit="10" x1="-0.5" y1="783.81" x2="1999.5" y2="783.81"/>
		<line fill="none" stroke="#000000" stroke-miterlimit="10" x1="-0.5" y1="744.6" x2="1999.5" y2="744.6"/>
		<line fill="none" stroke="#000000" stroke-miterlimit="10" x1="-0.5" y1="705.38" x2="1999.5" y2="705.38"/>
		<line fill="none" stroke="#000000" stroke-miterlimit="10" x1="-0.5" y1="666.17" x2="1999.5" y2="666.17"/>
		<line fill="none" stroke="#000000" stroke-miterlimit="10" x1="-0.5" y1="626.95" x2="1999.5" y2="626.95"/>
		<line fill="none" stroke="#000000" stroke-miterlimit="10" x1="-0.5" y1="587.74" x2="1999.5" y2="587.74"/>
		<line fill="none" stroke="#000000" stroke-miterlimit="10" x1="-0.5" y1="548.52" x2="1999.5" y2="548.52"/>
		<line fill="none" stroke="#000000" stroke-miterlimit="10" x1="-0.5" y1="509.3" x2="1999.5" y2="509.3"/>
		<line fill="none" stroke="#000000" stroke-miterlimit="10" x1="-0.5" y1="470.09" x2="1999.5" y2="470.09"/>
		<line fill="none" stroke="#000000" stroke-miterlimit="10" x1="-0.5" y1="430.87" x2="1999.5" y2="430.87"/>
		<line fill="none" stroke="#000000" stroke-miterlimit="10" x1="-0.5" y1="391.66" x2="1999.5" y2="391.66"/>
		<line fill="none" stroke="#000000" stroke-miterlimit="10" x1="-0.5" y1="352.44" x2="1999.5" y2="352.44"/>
		<line fill="none" stroke="#000000" stroke-miterlimit="10" x1="-0.5" y1="313.23" x2="1999.5" y2="313.23"/>
		<line fill="none" stroke="#000000" stroke-miterlimit="10" x1="-0.5" y1="274.01" x2="1999.5" y2="274.01"/>
		<line fill="none" stroke="#000000" stroke-miterlimit="10" x1="-0.5" y1="234.79" x2="1999.5" y2="234.79"/>
		<line fill="none" stroke="#000000" stroke-miterlimit="10" x1="-0.5" y1="195.58" x2="1999.5" y2="195.58"/>
		<line fill="none" stroke="#000000" stroke-miterlimit="10" x1="-0.5" y1="156.36" x2="1999.5" y2="156.36"/>
		<line fill="none" stroke="#000000" stroke-miterlimit="10" x1="-0.5" y1="117.15" x2="1999.5" y2="117.15"/>
		<line fill="none" stroke="#000000" stroke-miterlimit="10" x1="-0.5" y1="77.93" x2="1999.5" y2="77.93"/>
		<line fill="none" stroke="#000000" stroke-miterlimit="10" x1="-0.5" y1="38.72" x2="1999.5" y2="38.72"/>
		<line fill="none" stroke="#000000" stroke-miterlimit="10" x1="1960.28" y1="-0.5" x2="1960.28" y2="1999.5"/>
		<line fill="none" stroke="#000000" stroke-miterlimit="10" x1="1921.07" y1="-0.5" x2="1921.07" y2="1999.5"/>
		<line fill="none" stroke="#000000" stroke-miterlimit="10" x1="1881.85" y1="-0.5" x2="1881.85" y2="1999.5"/>
		<line fill="none" stroke="#000000" stroke-miterlimit="10" x1="1842.64" y1="-0.5" x2="1842.64" y2="1999.5"/>
		<line fill="none" stroke="#000000" stroke-miterlimit="10" x1="1803.42" y1="-0.5" x2="1803.42" y2="1999.5"/>
		<line fill="none" stroke="#000000" stroke-miterlimit="10" x1="1764.21" y1="-0.5" x2="1764.21" y2="1999.5"/>
		<line fill="none" stroke="#000000" stroke-miterlimit="10" x1="1724.99" y1="-0.5" x2="1724.99" y2="1999.5"/>
		<line fill="none" stroke="#000000" stroke-miterlimit="10" x1="1685.77" y1="-0.5" x2="1685.77" y2="1999.5"/>
		<line fill="none" stroke="#000000" stroke-miterlimit="10" x1="1646.56" y1="-0.5" x2="1646.56" y2="1999.5"/>
		<line fill="none" stroke="#000000" stroke-miterlimit="10" x1="1607.34" y1="-0.5" x2="1607.34" y2="1999.5"/>
		<line fill="none" stroke="#000000" stroke-miterlimit="10" x1="1568.13" y1="-0.5" x2="1568.13" y2="1999.5"/>
		<line fill="none" stroke="#000000" stroke-miterlimit="10" x1="1528.91" y1="-0.5" x2="1528.91" y2="1999.5"/>
		<line fill="none" stroke="#000000" stroke-miterlimit="10" x1="1489.7" y1="-0.5" x2="1489.7" y2="1999.5"/>
		<line fill="none" stroke="#000000" stroke-miterlimit="10" x1="1450.48" y1="-0.5" x2="1450.48" y2="1999.5"/>
		<line fill="none" stroke="#000000" stroke-miterlimit="10" x1="1411.26" y1="-0.5" x2="1411.26" y2="1999.5"/>
		<line fill="none" stroke="#000000" stroke-miterlimit="10" x1="1372.05" y1="-0.5" x2="1372.05" y2="1999.5"/>
		<line fill="none" stroke="#000000" stroke-miterlimit="10" x1="1332.83" y1="-0.5" x2="1332.83" y2="1999.5"/>
		<line fill="none" stroke="#000000" stroke-miterlimit="10" x1="1293.62" y1="-0.5" x2="1293.62" y2="1999.5"/>
		<line fill="none" stroke="#000000" stroke-miterlimit="10" x1="1254.4" y1="-0.5" x2="1254.4" y2="1999.5"/>
		<line fill="none" stroke="#000000" stroke-miterlimit="10" x1="1215.19" y1="-0.5" x2="1215.19" y2="1999.5"/>
		<line fill="none" stroke="#000000" stroke-miterlimit="10" x1="1175.97" y1="-0.5" x2="1175.97" y2="1999.5"/>
		<line fill="none" stroke="#000000" stroke-miterlimit="10" x1="1136.75" y1="-0.5" x2="1136.75" y2="1999.5"/>
		<line fill="none" stroke="#000000" stroke-miterlimit="10" x1="1097.54" y1="-0.5" x2="1097.54" y2="1999.5"/>
		<line fill="none" stroke="#000000" stroke-miterlimit="10" x1="1058.32" y1="-0.5" x2="1058.32" y2="1999.5"/>
		<line fill="none" stroke="#000000" stroke-miterlimit="10" x1="1019.11" y1="-0.5" x2="1019.11" y2="1999.5"/>
		<line fill="none" stroke="#000000" stroke-miterlimit="10" x1="979.89" y1="-0.5" x2="979.89" y2="1999.5"/>
		<line fill="none" stroke="#000000" stroke-miterlimit="10" x1="940.68" y1="-0.5" x2="940.68" y2="1999.5"/>
		<line fill="none" stroke="#000000" stroke-miterlimit="10" x1="901.46" y1="-0.5" x2="901.46" y2="1999.5"/>
		<line fill="none" stroke="#000000" stroke-miterlimit="10" x1="862.25" y1="-0.5" x2="862.25" y2="1999.5"/>
		<line fill="none" stroke="#000000" stroke-miterlimit="10" x1="823.03" y1="-0.5" x2="823.03" y2="1999.5"/>
		<line fill="none" stroke="#000000" stroke-miterlimit="10" x1="783.81" y1="-0.5" x2="783.81" y2="1999.5"/>
		<line fill="none" stroke="#000000" stroke-miterlimit="10" x1="744.6" y1="-0.5" x2="744.6" y2="1999.5"/>
		<line fill="none" stroke="#000000" stroke-miterlimit="10" x1="705.38" y1="-0.5" x2="705.38" y2="1999.5"/>
		<line fill="none" stroke="#000000" stroke-miterlimit="10" x1="666.17" y1="-0.5" x2="666.17" y2="1999.5"/>
		<line fill="none" stroke="#000000" stroke-miterlimit="10" x1="626.95" y1="-0.5" x2="626.95" y2="1999.5"/>
		<line fill="none" stroke="#000000" stroke-miterlimit="10" x1="587.74" y1="-0.5" x2="587.74" y2="1999.5"/>
		<line fill="none" stroke="#000000" stroke-miterlimit="10" x1="548.52" y1="-0.5" x2="548.52" y2="1999.5"/>
		<line fill="none" stroke="#000000" stroke-miterlimit="10" x1="509.3" y1="-0.5" x2="509.3" y2="1999.5"/>
		<line fill="none" stroke="#000000" stroke-miterlimit="10" x1="470.09" y1="-0.5" x2="470.09" y2="1999.5"/>
		<line fill="none" stroke="#000000" stroke-miterlimit="10" x1="430.87" y1="-0.5" x2="430.87" y2="1999.5"/>
		<line fill="none" stroke="#000000" stroke-miterlimit="10" x1="391.66" y1="-0.5" x2="391.66" y2="1999.5"/>
		<line fill="none" stroke="#000000" stroke-miterlimit="10" x1="352.44" y1="-0.5" x2="352.44" y2="1999.5"/>
		<line fill="none" stroke="#000000" stroke-miterlimit="10" x1="313.23" y1="-0.5" x2="313.23" y2="1999.5"/>
		<line fill="none" stroke="#000000" stroke-miterlimit="10" x1="274.01" y1="-0.5" x2="274.01" y2="1999.5"/>
		<line fill="none" stroke="#000000" stroke-miterlimit="10" x1="234.79" y1="-0.5" x2="234.79" y2="1999.5"/>
		<line fill="none" stroke="#000000" stroke-miterlimit="10" x1="195.58" y1="-0.5" x2="195.58" y2="1999.5"/>
		<line fill="none" stroke="#000000" stroke-miterlimit="10" x1="156.36" y1="-0.5" x2="156.36" y2="1999.5"/>
		<line fill="none" stroke="#000000" stroke-miterlimit="10" x1="117.15" y1="-0.5" x2="117.15" y2="1999.5"/>
		<line fill="none" stroke="#000000" stroke-miterlimit="10" x1="77.93" y1="-0.5" x2="77.93" y2="1999.5"/>
		<line fill="none" stroke="#000000" stroke-miterlimit="10" x1="38.72" y1="-0.5" x2="38.72" y2="1999.5"/>
	</g>
</g>
<g id="colori_x2B_" display="none">
	<circle display="inline" fill="#D3B99F" cx="-127.5" cy="696.5" r="69.5"/>
	<circle display="inline" fill="#9AADBF" cx="-127.5" cy="862.5" r="69.5"/>
	<circle display="inline" fill="#CDE5D7" cx="-133.92" cy="1039.05" r="69.5"/>
</g>
<g id="FLAMANTE" display="none">
	<g display="inline">
		<rect x="560.25" y="1396.14" fill="none" width="879.51" height="123.34"/>
		<text transform="matrix(1 0 0 1 794.6223 1481.6995)" fill="#2A2A2A" font-family="'FlamanteSemiSlabBold'" font-size="120px">Musica</text>
		<rect x="801.41" y="1495.45" fill="none" width="112.9" height="62.5"/>
		<text transform="matrix(1 0 0 1 801.4119 1546.7913)" fill="#476172" font-family="'FlamanteSemiSlabBold'" font-size="72px">De</text>
		<rect x="935.54" y="1498.66" fill="none" width="313.73" height="87.28"/>
		<text transform="matrix(1 0 0 1 935.5447 1545.0082)"><tspan x="0" y="0" fill="#2A2A2A" font-family="'FlamanteSemiSlabBold'" font-size="65px" letter-spacing="8">Mad</tspan><tspan x="162.3" y="0" fill="#2A2A2A" font-family="'FlamanteSemiSlabBold'" font-size="65px" letter-spacing="9">r</tspan><tspan x="197.99" y="0" fill="#2A2A2A" font-family="'FlamanteSemiSlabBold'" font-size="65px" letter-spacing="8">id</tspan></text>
	</g>
</g>
<g id="PIOGGIA" display="none">
	<g display="inline">
		<rect x="560.25" y="1409.66" fill="none" width="879.51" height="123.34"/>
		<text transform="matrix(1 0 0 1 858.4006 1485.6202)"><tspan x="0" y="0" fill="#2A2A2A" font-family="'Pioggia'" font-size="120px" letter-spacing="-3">M</tspan><tspan x="75.24" y="0" fill="#2A2A2A" font-family="'Pioggia'" font-size="120px" letter-spacing="-1">u</tspan><tspan x="127.56" y="0" fill="#2A2A2A" font-family="'Pioggia'" font-size="120px" letter-spacing="-2">si</tspan><tspan x="189.84" y="0" fill="#2A2A2A" font-family="'Pioggia'" font-size="120px">c</tspan><tspan x="232.68" y="0" fill="#2A2A2A" font-family="'Pioggia'" font-size="120px" letter-spacing="1">a</tspan></text>
		<rect x="857.86" y="1501.75" fill="none" width="112.9" height="62.5"/>
		<text transform="matrix(1 0 0 1 857.861 1547.3225)" fill="#476172" font-family="'Pioggia'" font-size="72px">De</text>
		<rect x="935.54" y="1505.15" fill="none" width="313.73" height="87.28"/>
		<text transform="matrix(1 0 0 1 935.5447 1546.2931)"><tspan x="0" y="0" fill="#2A2A2A" font-family="'Pioggia'" font-size="65px" letter-spacing="7">M</tspan><tspan x="49.86" y="0" fill="#2A2A2A" font-family="'Pioggia'" font-size="65px" letter-spacing="6">a</tspan><tspan x="83.14" y="0" fill="#2A2A2A" font-family="'Pioggia'" font-size="65px" letter-spacing="8">d</tspan><tspan x="119.99" y="0" fill="#2A2A2A" font-family="'Pioggia'" font-size="65px" letter-spacing="7">r</tspan><tspan x="151.32" y="0" fill="#2A2A2A" font-family="'Pioggia'" font-size="65px" letter-spacing="6">i</tspan><tspan x="172.51" y="0" fill="#2A2A2A" font-family="'Pioggia'" font-size="65px" letter-spacing="8">d</tspan></text>
	</g>
</g>
<g id="SERAT" display="none">
	<g display="inline">
		<rect x="560.25" y="1391.17" fill="none" width="879.51" height="123.34"/>
		<text transform="matrix(1 0 0 1 795.215 1481.5787)" fill="#2A2A2A" font-family="'Serat-Ultra'" font-size="120px">Musica</text>
		<rect x="801.41" y="1490.48" fill="none" width="112.9" height="62.5"/>
		<text transform="matrix(1 0 0 1 801.4124 1544.7291)" fill="#476172" font-family="'Serat-Ultra'" font-size="72px">De</text>
		<rect x="935.54" y="1493.69" fill="none" width="313.73" height="87.28"/>
		
			<text transform="matrix(1 0 0 1 935.5447 1542.6639)" fill="#2A2A2A" font-family="'Serat-Ultra'" font-size="65px" letter-spacing="8">Madrid</text>
	</g>
</g>
<g id="ANTON" display="none">
	<rect x="567.47" y="1403.24" display="inline" fill="none" width="879.51" height="123.34"/>
	
		<text transform="matrix(1 0 0 1 831.0092 1506.9211)" display="inline" fill="#2A2A2A" font-family="'Anton-Regular'" font-size="120px">Musica</text>
	<rect x="832.85" y="1522.85" display="inline" fill="none" width="112.9" height="62.5"/>
	
		<text transform="matrix(1 0 0 1 832.851 1585.0557)" display="inline" fill="#476172" font-family="'Anton-Regular'" font-size="72px">De</text>
	<rect x="925.94" y="1527" display="inline" fill="none" width="313.73" height="87.28"/>
	
		<text transform="matrix(1 0 0 1 925.9443 1583.1617)" display="inline" fill="#2A2A2A" font-family="'Anton-Regular'" font-size="65px" letter-spacing="14">Madrid</text>
</g>
<g id="vinile">
</g>
<g id="segni_vinile">
</g>
<g id="ombre_vinile" display="none">
	<path display="inline" opacity="0.51" fill="#97B3C6" d="M1544,1029.5c0,0-132.74,433.33-642.54,505.59l117.65,8.57l182.38-38.2
		l113.02-61.53l135.98-129.43l78.43-148.98l5.22-61.84L1544,1029.5z"/>
	<path display="inline" fill="#FFFFFF" d="M979.89,456c0,0-404.71,92.52-523.89,602.32l2.51-110.82l50.79-163.69l87.12-148.58
		l108.96-86.71l137.37-69.44L979.89,456z"/>
</g>
<g id="occhio">
</g>
<g id="LOGO">
	<g>
		<circle fill="#476172" cx="1000" cy="997.36" r="684.48"/>
		<circle fill="#9E9056" cx="1003.15" cy="999.25" r="268.63"/>
		<g opacity="0.25">
			<path fill="#476172" d="M1616.15,997.36c-0.48-20.17-1.93-40.29-4.35-60.27c-2.36-19.98-5.68-39.84-9.98-59.45
				c-8.58-39.24-21.04-77.54-37.1-114.18c-15.96-36.68-35.52-71.72-58.27-104.47c-22.64-32.82-48.48-63.37-76.99-91.09
				c-28.51-27.74-59.98-52.28-93.36-73.59l-6.27-3.98c-2.09-1.33-4.17-2.67-6.3-3.92c-4.25-2.53-8.45-5.15-12.74-7.61l-6.42-3.73
				l-3.21-1.86l-3.25-1.79l-6.5-3.57l-3.25-1.79l-3.28-1.73c-17.45-9.31-35.25-17.96-53.39-25.87
				c-36.28-15.84-74.02-28.55-112.75-37.99c-38.73-9.51-78.43-15.62-118.75-19.25v-2.52c40.51-3.59,81.64-1.88,122.2,4.32
				c40.56,6.24,80.56,17.07,118.93,32.2c19.19,7.57,37.95,16.24,56.13,26c9.09,4.88,18,10.09,26.82,15.45
				c8.78,5.41,17.38,11.11,25.87,16.95c33.8,23.64,65.08,50.65,93.74,80.06c28.63,29.45,54.35,61.65,76.66,96.01
				c22.21,34.42,41,70.98,55.99,108.96c14.9,38.02,25.99,77.45,33.09,117.5c3.55,20.03,6.12,40.2,7.68,60.44
				c1.5,20.24,2.02,40.54,1.56,60.78H1616.15z"/>
		</g>
		<g opacity="0.25">
			<path fill="#476172" d="M383.85,997.36c0.48,20.17,1.93,40.29,4.35,60.27c2.36,19.98,5.68,39.84,9.98,59.45
				c8.58,39.24,21.04,77.54,37.1,114.18c15.96,36.68,35.52,71.72,58.27,104.47c22.64,32.82,48.48,63.37,76.99,91.09
				c28.51,27.74,59.98,52.28,93.36,73.59l6.27,3.98c2.09,1.33,4.17,2.67,6.3,3.92c4.25,2.53,8.45,5.15,12.74,7.61l6.42,3.73
				l3.21,1.86l3.25,1.79l6.5,3.57l3.25,1.79l3.28,1.73c17.45,9.31,35.25,17.96,53.39,25.87c36.28,15.84,74.02,28.55,112.75,37.99
				c38.73,9.51,78.43,15.62,118.75,19.25v2.52c-40.51,3.59-81.64,1.88-122.2-4.32c-40.56-6.24-80.56-17.07-118.93-32.2
				c-19.19-7.57-37.95-16.24-56.13-26.01c-9.09-4.88-18-10.09-26.82-15.45c-8.78-5.41-17.38-11.11-25.87-16.95
				c-33.8-23.64-65.08-50.65-93.74-80.06c-28.63-29.45-54.35-61.65-76.66-96.01c-22.21-34.42-41-70.98-55.99-108.96
				c-14.9-38.02-25.99-77.45-33.09-117.5c-3.55-20.03-6.12-40.2-7.68-60.44c-1.5-20.24-2.02-40.54-1.56-60.78H383.85z"/>
		</g>
		<g opacity="0.25">
			<path fill="#476172" d="M1531.06,997.36c-0.48-17.38-1.79-34.72-3.94-51.93c-2.11-17.21-5.05-34.3-8.83-51.18
				c-7.53-33.76-18.29-66.73-32.2-98.23c-13.82-31.54-30.75-61.64-50.4-89.76c-19.54-28.19-41.83-54.41-66.4-78.19
				c-24.57-23.8-51.72-44.79-80.47-63c-28.73-18.25-58.76-34.27-89.9-47.99c-31.14-13.71-63.52-24.79-96.78-33.16
				c-33.27-8.42-67.39-13.99-102.15-17.63v-2.52c34.94-3.59,70.5-2.42,105.6,2.7c35.1,5.16,69.74,14.37,102.97,27.36
				c16.61,6.5,32.86,13.98,48.59,22.43c7.87,4.22,15.59,8.7,23.19,13.38c7.58,4.7,15.01,9.65,22.34,14.72
				c29.17,20.55,56.12,44,80.84,69.47c24.7,25.51,46.86,53.39,66.07,83.12c19.11,29.8,35.26,61.41,48.12,94.25
				c12.78,32.87,22.32,66.92,28.32,101.52c2.99,17.3,5.13,34.73,6.4,52.19c1.23,17.47,1.61,34.98,1.15,52.44H1531.06z"/>
		</g>
		<g opacity="0.25">
			<path fill="#476172" d="M468.94,997.36c0.48,17.38,1.79,34.72,3.94,51.93c2.11,17.21,5.05,34.3,8.83,51.18
				c7.53,33.76,18.29,66.73,32.2,98.23c13.82,31.54,30.75,61.64,50.4,89.76c19.54,28.19,41.83,54.41,66.4,78.19
				c24.57,23.8,51.72,44.79,80.47,63c28.73,18.25,58.76,34.27,89.9,47.99c31.14,13.71,63.52,24.79,96.78,33.16
				c33.27,8.42,67.39,13.99,102.15,17.63v2.52c-34.94,3.59-70.5,2.42-105.6-2.7c-35.1-5.16-69.74-14.37-102.97-27.36
				c-16.61-6.5-32.86-13.98-48.59-22.43c-7.87-4.22-15.59-8.7-23.19-13.38c-7.58-4.7-15.01-9.65-22.34-14.72
				c-29.17-20.55-56.12-44-80.84-69.47c-24.7-25.51-46.86-53.39-66.07-83.12c-19.11-29.8-35.26-61.41-48.12-94.25
				c-12.78-32.87-22.32-66.92-28.32-101.52c-2.99-17.3-5.13-34.73-6.4-52.19c-1.23-17.47-1.61-34.98-1.15-52.44H468.94z"/>
		</g>
		<g opacity="0.25">
			<path fill="#476172" d="M1457.71,997.36c-0.48-14.98-1.68-29.92-3.59-44.73c-1.88-14.82-4.47-29.53-7.78-44.06
				c-6.6-29.05-15.96-57.4-28.03-84.47c-11.98-27.1-26.63-52.96-43.61-77.08c-16.87-24.2-36.1-46.69-57.27-67.08
				c-21.17-20.4-44.59-38.33-69.35-53.87c-24.74-15.58-50.52-29.32-77.22-41.2c-26.7-11.87-54.46-21.55-83.02-28.99
				c-28.56-7.49-57.88-12.6-87.83-16.23v-2.52c30.14-3.6,60.9-2.89,91.28,1.3c30.39,4.22,60.41,12.04,89.21,23.19
				c14.4,5.58,28.47,12.03,42.08,19.35c6.81,3.65,13.49,7.54,20.06,11.6c6.55,4.09,12.97,8.38,19.3,12.79
				c25.18,17.87,48.4,38.27,69.73,60.34c21.3,22.11,40.4,46.27,56.94,72c16.44,25.8,30.31,53.17,41.33,81.57
				c10.94,28.43,19.09,57.87,24.15,87.76c2.52,14.94,4.31,29.99,5.35,45.07c1,15.08,1.26,30.19,0.8,45.25H1457.71z"/>
		</g>
		<g opacity="0.25">
			<path fill="#476172" d="M542.29,997.36c0.48,14.98,1.68,29.92,3.59,44.73c1.88,14.82,4.47,29.53,7.78,44.06
				c6.6,29.05,15.96,57.4,28.03,84.47c11.98,27.1,26.63,52.96,43.61,77.08c16.87,24.2,36.1,46.69,57.27,67.08
				c21.17,20.4,44.59,38.33,69.35,53.87c24.74,15.58,50.52,29.32,77.22,41.2c26.7,11.87,54.46,21.55,83.02,28.99
				c28.56,7.49,57.88,12.6,87.83,16.23v2.52c-30.14,3.6-60.9,2.89-91.28-1.3c-30.39-4.22-60.41-12.04-89.21-23.19
				c-14.4-5.58-28.47-12.03-42.08-19.35c-6.81-3.65-13.49-7.54-20.06-11.6c-6.55-4.09-12.97-8.38-19.3-12.79
				c-25.18-17.87-48.4-38.27-69.73-60.34c-21.3-22.11-40.4-46.27-56.94-72c-16.44-25.8-30.31-53.17-41.33-81.57
				c-10.94-28.43-19.09-57.87-24.15-87.76c-2.52-14.94-4.31-29.99-5.35-45.07c-1-15.08-1.26-30.19-0.8-45.25H542.29z"/>
		</g>
		<g opacity="0.25">
			<path fill="#476172" d="M1394.46,997.36c-2.01-51.64-13.64-102.54-34.63-149.04c-10.4-23.28-23.07-45.46-37.74-66.15
				c-14.57-20.76-31.14-40.04-49.38-57.51c-18.25-17.47-38.46-32.75-59.78-45.99c-21.3-13.27-43.42-25.04-66.29-35.33
				c-22.88-10.28-46.65-18.76-71.14-25.39c-24.5-6.69-49.67-11.41-75.48-15.05v-2.52c26-3.58,52.62-3.26,78.94,0.12
				c26.32,3.42,52.36,10.04,77.33,19.59l2.35,0.87c0.78,0.29,1.54,0.64,2.31,0.96l4.62,1.95l9.21,3.98l2.3,1l2.25,1.12l4.48,2.25
				c2.99,1.49,5.96,3.03,8.94,4.56l2.23,1.15l2.17,1.26l4.33,2.53c2.89,1.68,5.75,3.41,8.63,5.12c0.71,0.44,1.45,0.83,2.14,1.31
				l2.08,1.4l4.16,2.81l8.3,5.61c21.74,15.57,41.75,33.31,60.16,52.45c18.37,19.19,34.82,40.13,49.06,62.43
				c14.13,22.37,26.03,46.07,35.46,70.64c9.35,24.61,16.29,50.06,20.55,75.88l1.41,9.71l0.7,4.85l0.35,2.42
				c0.1,0.81,0.16,1.63,0.24,2.44l0.92,9.75l0.46,4.87c0.14,1.62,0.34,3.24,0.37,4.88c0.24,6.52,0.57,13.03,0.73,19.54l-0.21,19.51
				H1394.46z"/>
		</g>
		<g opacity="0.25">
			<path fill="#476172" d="M605.54,997.36c2.01,51.64,13.64,102.54,34.63,149.04c10.4,23.28,23.07,45.46,37.74,66.15
				c14.57,20.76,31.14,40.04,49.38,57.51c18.25,17.47,38.46,32.75,59.78,45.99c21.3,13.27,43.42,25.04,66.29,35.33
				c22.88,10.28,46.65,18.76,71.14,25.39c24.5,6.69,49.67,11.41,75.48,15.05v2.52c-26,3.58-52.62,3.26-78.94-0.12
				c-26.32-3.43-52.36-10.04-77.33-19.59l-2.35-0.87c-0.78-0.29-1.54-0.64-2.31-0.96l-4.62-1.95l-9.21-3.98l-2.3-1l-2.25-1.12
				l-4.48-2.25c-2.99-1.49-5.96-3.03-8.94-4.56l-2.23-1.15l-2.17-1.26l-4.33-2.53c-2.89-1.68-5.75-3.41-8.63-5.12
				c-0.71-0.44-1.45-0.83-2.14-1.31l-2.08-1.4l-4.16-2.81l-8.3-5.61c-21.74-15.57-41.75-33.31-60.16-52.45
				c-18.37-19.19-34.82-40.13-49.06-62.43c-14.13-22.37-26.03-46.07-35.46-70.64c-9.35-24.61-16.29-50.06-20.55-75.88l-1.41-9.71
				l-0.7-4.85l-0.35-2.42c-0.1-0.81-0.16-1.63-0.24-2.44l-0.92-9.75l-0.46-4.87c-0.14-1.62-0.34-3.24-0.37-4.88
				c-0.24-6.52-0.57-13.03-0.73-19.54l0.21-19.51H605.54z"/>
		</g>
		<g>
			<path fill="#9AADBF" d="M1129.72,916.76c0,0-124.04-10.91-240.67-0.84l16.35-32.95l52.41-22.68l59.45-6.99l42.24,7.77
				l47.63,20.17l15.08,18.61L1129.72,916.76z"/>
			<polygon fill="#FFFFFF" points="719.41,947.66 713.12,1025.68 729.48,1081.04 755.9,1145.21 812.52,1216.93 877.95,1259.71 
				927.02,1278.58 996.23,1293.68 1099.4,1272.29 1158.54,1244.61 1206.35,1206.86 1246.61,1157.79 1285.62,1096.14 
				1294.43,1031.97 1285.62,977.86 1285.62,937.6 1258.86,922.12 1171.12,870.75 1076.94,845.47 963.35,842.24 876.69,859.13 
				805.41,885.93 760.63,922.91 			"/>
			<circle fill="#99BC99" cx="1008.18" cy="1016.24" r="162.94"/>
			<path fill="#D3B99F" d="M719.41,923.76l55.36-104.43l60.39-57.88c0,0,76.75-50.33,81.78-46.55c5.03,3.77,95.63-13.84,95.63-13.84
				l94.37,25.16l61.65,32.71l45.3,41.52l31.46,36.49l27.68,41.52l12.58,45.3l-61.42-27.05l-93.97-33.45L1000,840.11l-141,21.74
				l-74.75,37.66l-64.83,31.79V923.76z"/>
			<circle fill="#2A2A2A" cx="1027.21" cy="1012.84" r="86.19"/>
			<circle fill="#FFFFFF" cx="1093.11" cy="969.68" r="24.54"/>
			<circle fill="#FFFFFF" cx="1093.11" cy="1017.14" r="14.47"/>
			<path fill="#D3B99F" d="M738.29,878.46c0,0,255.25-173.83,530.97,0l10.07,25.16l6.29,27.68l-37.75-13.84l-117.64-54.21
				l-122.05-9.96l-115.37,1.42l-108.78,52.27l-64.62,24.32L738.29,878.46z"/>
			<path display="none" fill="none" stroke="#2A2A2A" stroke-width="50.3292" stroke-miterlimit="10" d="M713.12,997.99
				c0,160.52,130.13,290.65,290.65,290.65s290.65-130.13,290.65-290.65s-130.13-290.65-290.65-290.65
				c-78.3,0-149.37,30.96-201.64,81.32C747.26,841.53,713.12,915.77,713.12,997.99z"/>
			<path display="none" fill="none" stroke="#2A2A2A" stroke-width="32.8549" stroke-miterlimit="10" d="M719.52,937.11
				c0,0,265.86-218.71,574.91,0.49"/>
			<path fill="none" stroke="#9AADBF" stroke-width="32.4995" stroke-miterlimit="10" d="M1011.48,1113.59"/>
			<path fill="none" stroke="#9AADBF" stroke-width="32.4995" stroke-miterlimit="10" d="M1012.83,1170.83"/>
		</g>
		<path fill="#BABABA" d="M1266.16,962.02c0,0-217.81-156.11-531.65,3.84l-0.68-8.86l5.23-33.09L813,885.03l128.03-31.73
			l121.89-4.56l108.21,22.01l68.61,38.04l54.7,36.35L1266.16,962.02z"/>
		<path fill="#99BC99" d="M1008.18,848.74c-92.22,0-167.24,75.02-167.24,167.24c0,92.21,75.02,167.24,167.24,167.24
			c92.21,0,167.24-75.02,167.24-167.24C1175.42,923.76,1100.39,848.74,1008.18,848.74z M1015.02,1150.54l-6.84-49.14l-6.84,49.14
			c-70.72-3.55-127.22-61.89-127.87-133.32l48.91-7.12l-48.31-7.03c6.52-68.26,64.17-121.83,134.11-121.83
			c72.95,0,132.5,58.29,134.63,130.73l-19.98,5.16l19.92,5.15C1139.55,1091.39,1084.06,1147.07,1015.02,1150.54z"/>
		<path fill="#9AADBF" d="M901.04,905.55c0,0,81.98-22.75,210.9-2.53l-13.72-25.64l-84.08-25.64l-91.43,23.11L901.04,905.55z"/>
		<circle fill="none" stroke="#2A2A2A" stroke-width="19.1653" stroke-miterlimit="10" cx="1008.18" cy="1016.24" r="162.94"/>
		<path fill="none" stroke="#2A2A2A" stroke-width="50.3292" stroke-miterlimit="10" d="M709.35,997.36
			c0,160.52,130.13,290.65,290.65,290.65s290.65-130.13,290.65-290.65S1160.52,706.71,1000,706.71
			c-78.3,0-149.37,30.96-201.64,81.32C743.49,840.9,709.35,915.15,709.35,997.36z"/>
		<path fill="none" stroke="#2A2A2A" stroke-width="32.8549" stroke-miterlimit="10" d="M716.32,933.31
			c0,0,265.86-218.71,574.91,0.49"/>
		<g>
			<path fill="#E8D8C8" d="M984.37,748.01c7.48-0.45,14.61,0.15,21.66,1.01c7.03,0.91,13.93,2.22,20.72,3.87
				c6.79,1.64,13.39,3.86,19.81,6.63c6.42,2.77,12.78,5.72,19.27,8.27l19.44,7.76l19.35,8.04c12.86,5.47,25.73,10.92,38.49,16.71
				l-0.6,1.82c-13.7-2.92-27.29-6.19-40.89-9.43l-20.34-5.03l-20.25-5.31c-6.74-1.81-13.6-3.22-20.41-4.81
				c-6.81-1.59-13.44-3.72-19.87-6.44c-6.44-2.71-12.77-5.76-18.96-9.21c-6.18-3.49-12.28-7.25-18.02-12.06L984.37,748.01z"/>
		</g>
		<circle fill="none" stroke="#2A2A2A" stroke-width="75.4937" stroke-miterlimit="10" cx="1000" cy="997.36" r="684.48"/>
		<path fill="#2A2A2A" d="M823.53,335.87c0,0-382.65,163.1-422.07,580.9c0,0-52.55-97.85,0-271.92L604.29,438.8L823.53,335.87z"/>
		<path fill="#2A2A2A" d="M1161.94,1689.76c0,0,382.65-163.1,422.07-580.9c0,0,52.55,97.85,0,271.92l-202.82,206.04L1161.94,1689.76
			z"/>
	</g>
</g>
<g id="Stilizzato" display="none">
	<path display="inline" fill="#2A2A2A" d="M882.66,931.53c0,0,108.54-74.65,234.69,0c0,0-45.58-68.99-115.73-68.63
		C931.46,863.27,887.52,916.66,882.66,931.53z"/>
	<path display="inline" fill="#2A2A2A" d="M1146.64,970.48l-0.59-4.96c-147.92-126.8-289.52-3.86-289.52-3.86l-2.54,5.14
		c-1.71,9.38-2.61,19.05-2.61,28.95c0,85.22,66.54,154.3,148.62,154.3s148.62-69.08,148.62-154.3
		C1148.62,987.14,1147.94,978.7,1146.64,970.48z M1002.35,1086.98c-42.92,0-77.72-34.8-77.72-77.72s34.8-77.72,77.72-77.72
		c42.92,0,77.72,34.8,77.72,77.72S1045.27,1086.98,1002.35,1086.98z"/>
	<path display="inline" fill="#2A2A2A" d="M1000,653.94c-191.12,0-346.05,154.93-346.05,346.06s154.93,346.05,346.05,346.05
		s346.05-154.93,346.05-346.05S1191.12,653.94,1000,653.94z M1000,1166.3c-91.84,0-166.3-74.45-166.3-166.3
		c0-91.84,74.45-166.3,166.3-166.3s166.3,74.45,166.3,166.3C1166.3,1091.84,1091.84,1166.3,1000,1166.3z"/>
	<path display="inline" fill="#2A2A2A" d="M1003.32,941.86c-36.96,0-66.91,29.96-66.91,66.91s29.96,66.91,66.91,66.91
		s66.91-29.96,66.91-66.91S1040.27,941.86,1003.32,941.86z M1012.91,1051.28c-24.48,0-44.33-19.35-44.33-43.21
		s19.85-43.21,44.33-43.21s44.33,19.35,44.33,43.21S1037.39,1051.28,1012.91,1051.28z"/>
	<circle display="inline" fill="#2A2A2A" cx="1021.8" cy="1008.07" r="27.73"/>
</g>
</svg>
